# xmcd
#
# Track frame offsets:
#	150
#	10468
#	25119
#	35980
#	54550
#	70809
#	83835
#	102280
#	114856
#	133523
#	149532
#	170433
#	178929
#
# Disc length: 2572 seconds
#
# Revision: 1
# Processed by: cddbd v1.5.1PL2 Copyright (c) Steve Scherf et al.
# Submitted via: audiograbber 1.83.01
#
DISCID=b40a0a0d
DTITLE=Bobby Cochran - Private edition
DYEAR=2004
DGENRE=Blues
TTITLE0=My way
TTITLE1=Milk cow blues
TTITLE2=Somethin´ else
TTITLE3=My blues for Eddie
TTITLE4=Hide away
TTITLE5=For the first time
TTITLE6=Wrong kind of girl
TTITLE7=I´m just here visitin´
TTITLE8=Honky tonk
TTITLE9=Crusin´ I-40
TTITLE10=This moment without you
TTITLE11=Twenty flight rock
TTITLE12=Show me
EXTD=
EXTT0=
EXTT1=
EXTT2=
EXTT3=
EXTT4=
EXTT5=
EXTT6=
EXTT7=
EXTT8=
EXTT9=
EXTT10=
EXTT11=
EXTT12=
PLAYORDER=
